<svg xmlns="http://www.w3.org/2000/svg" viewBox="0 0 792 669" width="64" height="54">
	<defs>
		<clipPath clipPathUnits="userSpaceOnUse" id="cp1">
			<path d="M0 0L792 0L792 669L0 669Z" />
		</clipPath>
	</defs>
	<style>
		tspan { white-space:pre }
		.shp0 { fill: #000000 } 
	</style>
	<g id="Page 1" clip-path="url(#cp1)">
		<path id="Path 1" fill-rule="evenodd" class="shp0" d="M790.44 14.36L790.44 374.68C790.44 381.58 784.85 387.18 777.94 387.18L710.43 387.18L710.43 444.67C710.43 451.58 704.84 457.17 697.93 457.17L655.44 457.17L655.44 540.82C655.44 563.53 636.97 581.99 614.27 581.99L381.76 581.99L395.13 642L437.54 642C444.44 642 450.04 647.6 450.04 654.5C450.04 661.4 444.44 667 437.54 667L217.9 667C210.99 667 205.4 661.4 205.4 654.5C205.4 647.6 210.99 642 217.9 642L260.31 642L273.67 581.99L41.17 581.99C18.46 581.99 0 563.53 0 540.82L0 161.17C0 138.48 18.46 120 41.17 120L131.66 120L131.66 84.36C131.66 77.45 137.26 71.86 144.16 71.86L211.66 71.86L211.66 14.36C211.66 7.46 217.26 1.86 224.16 1.86L777.94 1.86C784.84 1.86 790.44 7.46 790.44 14.36ZM630.44 457.17L617.1 457.17L617.1 531.15C617.1 538.06 611.51 543.65 604.6 543.65L50.83 543.65C43.93 543.65 38.33 538.06 38.33 531.15L38.33 170.84C38.33 163.93 43.93 158.34 50.83 158.34L131.66 158.34L131.66 145L41.17 145C32.25 145 25 152.25 25 161.17L25 540.82C25 549.74 32.25 556.99 41.17 556.99L614.27 556.99C623.19 556.99 630.44 549.74 630.44 540.82L630.44 457.17ZM369.51 642L356.15 581.99L299.28 581.99L285.92 642L369.51 642ZM131.66 444.67L131.66 183.34L63.33 183.34L63.33 518.65L592.1 518.65L592.1 457.17L144.16 457.17C137.26 457.17 131.66 451.58 131.66 444.67ZM685.43 387.18L224.16 387.18C217.26 387.18 211.66 381.58 211.66 374.68L211.66 96.86L156.66 96.86L156.66 432.17L685.43 432.17L685.43 387.18ZM765.44 71.36L236.66 71.36L236.66 362.18L765.44 362.18L765.44 71.36ZM765.44 26.86L236.66 26.86L236.66 46.36L765.44 46.36L765.44 26.86Z" />
		<path id="Path 2" fill-rule="evenodd" class="shp0" d="M250 336.34L250 97.19C250 90.29 255.59 84.69 262.5 84.69L385.94 84.69C392.85 84.69 398.44 90.29 398.44 97.19L398.44 336.34C398.44 343.25 392.85 348.84 385.94 348.84L262.5 348.84C255.59 348.84 250 343.25 250 336.34ZM275 323.84L373.44 323.84L373.44 109.69L275 109.69L275 323.84ZM603.83 336.34L603.83 97.19C603.83 90.29 609.42 84.69 616.33 84.69L739.77 84.69C746.67 84.69 752.27 90.29 752.27 97.19L752.27 336.34C752.27 343.25 746.67 348.84 739.77 348.84L616.33 348.84C609.42 348.84 603.83 343.25 603.83 336.34ZM628.83 323.84L727.27 323.84L727.27 109.69L628.83 109.69L628.83 323.84Z" />
		<path id="Path 3" fill-rule="evenodd" class="shp0" d="M426.91 336.34L426.91 97.19C426.91 90.29 432.51 84.69 439.41 84.69L562.86 84.69C569.76 84.69 575.36 90.29 575.36 97.19L575.36 336.34C575.36 343.25 569.76 348.84 562.86 348.84L439.41 348.84C432.51 348.84 426.91 343.25 426.91 336.34ZM451.91 323.84L550.36 323.84L550.36 109.69L451.91 109.69L451.91 323.84Z" />
	</g>
</svg>