<svg xmlns="http://www.w3.org/2000/svg" viewBox="0 0 1536 1536" width="64" height="64">
	<style>
		tspan { white-space:pre }
		.shp0 { fill: #000000 } 
	</style>
	<g id="Layer 1">
		<path id="&lt;Compound Path&gt;" fill-rule="evenodd" class="shp0" d="M952.72 1066.07C952.72 1109.12 917.69 1144.15 874.64 1144.15C831.59 1144.15 796.57 1109.12 796.57 1066.07C796.57 1023.02 831.59 988 874.64 988C917.69 988 952.72 1023.02 952.72 1066.07ZM902.73 1066.07C902.73 1050.59 890.13 1037.99 874.64 1037.99C859.16 1037.99 846.56 1050.59 846.56 1066.07C846.56 1081.56 859.16 1094.15 874.64 1094.15C890.13 1094.15 902.73 1081.55 902.73 1066.07Z" />
		<path id="&lt;Compound Path&gt;" fill-rule="evenodd" class="shp0" d="M1319.96 267.32L1244.3 489.99L1289.61 489.99C1303.42 489.99 1314.61 501.18 1314.61 514.98C1314.61 528.79 1303.42 539.98 1289.61 539.98L1284.58 539.98L1284.58 1391.17C1284.58 1471.03 1219.61 1536 1139.75 1536L612.82 1536C532.96 1536 467.99 1471.03 467.99 1391.17L467.99 1312.17L371.34 1312.17C282.71 1312.17 210.59 1240.07 210.59 1151.43L210.59 785.03C210.59 696.39 282.7 624.28 371.34 624.28L467.99 624.28L467.99 539.98L462.96 539.98C449.15 539.98 437.96 528.79 437.96 514.98C437.96 501.18 449.15 489.99 462.96 489.99L523.99 489.99L523.99 198.09C523.99 193.13 525.47 188.29 528.23 184.17L644.28 11.08C648.92 4.16 656.7 0 665.04 0C673.37 0 681.16 4.16 685.8 11.08L801.85 184.17C804.62 188.29 806.09 193.13 806.09 198.09L806.09 489.99L863.35 489.99L868.46 127.38C868.93 93.66 896.76 66.23 930.47 66.23C964.2 66.23 992.01 93.66 992.48 127.38L997.59 489.99L1027.81 489.99L1125.87 201.37C1134.67 175.46 1153.04 154.52 1177.6 142.41C1194.5 134.08 1212.94 130.62 1231.23 132.14L1241.86 100.86C1246.3 87.78 1260.52 80.79 1273.58 85.23C1286.64 89.67 1293.64 103.87 1289.2 116.94L1278.56 148.27C1317.06 173.17 1335.36 221.97 1319.96 267.32ZM467.99 674.28L371.34 674.28C310.27 674.28 260.59 723.96 260.59 785.03L260.59 1151.43C260.59 1212.5 310.27 1262.18 371.34 1262.18L467.99 1262.18L467.99 1218.91L380.33 1218.91C338.16 1218.91 303.85 1184.6 303.85 1142.43L303.85 794.02C303.85 751.85 338.16 717.55 380.33 717.55L467.99 717.55L467.99 674.28ZM467.99 767.54L380.33 767.54C365.73 767.54 353.85 779.42 353.85 794.02L353.85 1142.43C353.85 1157.04 365.73 1168.92 380.33 1168.92L467.99 1168.92L467.99 767.54ZM1080.61 489.99L1191.49 489.99L1215.52 419.26L1116.12 385.49L1080.61 489.99ZM913.34 489.99L947.59 489.99L942.49 128.08C942.4 121.54 937.01 116.22 930.47 116.22C923.93 116.22 918.54 121.54 918.44 128.08L913.34 489.99ZM1234.59 1391.17L1234.59 539.98L934.8 541.16L934.8 825.29C934.8 866.5 901.27 900.03 860.06 900.03C818.85 900.03 785.32 866.5 785.32 825.29L785.32 744.75C785.32 731.1 774.22 720 760.57 720C746.93 720 735.83 731.1 735.83 744.75L735.83 900.89C735.83 942.1 702.3 975.63 661.09 975.63C619.88 975.63 586.35 942.1 586.35 900.89L586.35 539.98L517.98 539.98L517.98 1391.17C517.98 1443.46 560.53 1486 612.82 1486L1139.75 1486C1192.04 1486 1234.58 1443.46 1234.58 1391.17L1234.59 1391.17ZM756.09 489.99L756.09 233.7C734.5 240.14 712.35 244.26 690.04 246.01L690.04 489.99L756.09 489.99ZM640.17 106.98C648.16 109.4 656.52 110.64 665.04 110.64C673.55 110.64 681.91 109.39 689.9 106.97L665.04 69.89L640.17 106.98ZM587.5 185.52C637.95 200.77 692.12 200.77 742.57 185.52L718.47 149.59C701.7 156.8 683.61 160.64 665.04 160.64C646.46 160.64 628.37 156.81 611.6 149.59L587.5 185.52ZM573.98 233.7C573.98 233.7 573.98 233.7 573.98 233.7L573.98 233.7L573.98 233.7ZM573.98 233.7L573.98 489.98L640.04 489.98L640.04 246.01C617.72 244.26 595.57 240.14 573.98 233.7ZM636.34 539.98L636.34 900.89C636.34 914.53 647.44 925.63 661.08 925.63C674.73 925.63 685.83 914.53 685.83 900.89L685.83 744.74C685.83 703.53 719.36 670 760.57 670C801.78 670 835.31 703.53 835.31 744.74L835.31 825.28C835.31 838.93 846.41 850.03 860.05 850.03C873.7 850.03 884.8 838.93 884.8 825.28L884.8 540.93C883.31 540.74 881.85 540.43 880.43 539.98L636.34 539.98ZM1239.78 184.63C1226.52 180.12 1212.29 181.05 1199.71 187.25C1187.13 193.45 1177.72 204.18 1173.21 217.46L1132.2 338.15L1231.61 371.93L1272.62 251.24C1281.93 223.82 1267.2 193.94 1239.78 184.63Z" />
	</g>
</svg>