<svg width="64" height="64" viewBox="0 0 64 64" fill="none" xmlns="http://www.w3.org/2000/svg">
<path fill-rule="evenodd" clip-rule="evenodd" d="M46.8371 17.7197L45.8681 18.6887C49.1423 22.2677 51.2147 26.9616 51.4445 32.127H53.2661C53.7965 32.127 54.2261 32.5566 54.2261 33.087C54.2261 33.6168 53.7965 34.0464 53.2661 34.0464H51.4445C50.9543 45.0595 42.0851 53.9282 31.0728 54.4184V56.24C31.0728 56.7704 30.6432 57.2 30.1128 57.2C29.583 57.2 29.1534 56.7704 29.1534 56.24V54.4184C18.1404 53.9282 9.27179 45.0595 8.7816 34.0464H6.9594C6.4296 34.0464 6 33.6168 6 33.087C6 32.5566 6.4296 32.127 6.9594 32.127H8.7816C9.27179 21.1145 18.1404 12.2452 29.1534 11.7556V9.93343C29.1534 9.40303 29.583 8.97342 30.1128 8.97342C30.6432 8.97342 31.0728 9.40303 31.0728 9.93343V11.7556C36.2382 11.9854 40.9319 14.0579 44.5109 17.3315L45.4799 16.3631L45.0221 12.2404C44.9897 11.9506 45.0905 11.6614 45.2969 11.4556L50.4713 6.2812C50.7347 6.0172 51.1271 5.9308 51.4769 6.0574C51.8273 6.184 52.0721 6.502 52.1057 6.87221L52.4579 10.7416L56.3273 11.0938C56.6975 11.1274 57.0155 11.3722 57.1427 11.7226C57.2693 12.073 57.1823 12.4649 56.9189 12.7283L51.7439 17.9021C51.5633 18.0833 51.3185 18.1835 51.0659 18.1835C51.0299 18.1835 50.9951 18.1817 50.9591 18.1775L46.8371 17.7197ZM46.9805 12.4871L47.3537 15.8459L50.7125 16.2191L54.1127 12.8201L51.4877 12.5813C51.0263 12.5393 50.6609 12.1732 50.6189 11.7124L50.3801 9.08742L46.9805 12.4871ZM44.5109 20.0465L41.6225 22.9343C44.0147 25.6428 45.4679 29.1978 45.4679 33.087C45.4679 41.5543 38.5799 48.4429 30.1128 48.4429C21.6462 48.4429 14.7576 41.5543 14.7576 33.087C14.7576 24.6197 21.6462 17.7311 30.1128 17.7311C34.002 17.7311 37.557 19.1849 40.2653 21.5771L43.1531 18.6893C39.9239 15.7619 35.7096 13.9031 31.0728 13.6763V15.0281C31.0728 15.5579 30.6432 15.9881 30.1128 15.9881C29.583 15.9881 29.1534 15.5579 29.1534 15.0281V13.6763C19.1994 14.1623 11.1888 22.1729 10.7028 32.127H12.0546C12.5844 32.127 13.014 32.5566 13.014 33.087C13.014 33.6168 12.5844 34.0464 12.0546 34.0464H10.7028C11.1888 44.0005 19.1994 52.0112 29.1534 52.4972V51.1454C29.1534 50.6156 29.583 50.1859 30.1134 50.1859C30.6432 50.1859 31.0728 50.6156 31.0728 51.1454V52.4972C41.0267 52.0112 49.0373 44.0005 49.5233 34.0464H48.1715C47.6417 34.0464 47.2115 33.6168 47.2115 33.087C47.2115 32.5566 47.6417 32.127 48.1715 32.127H49.5233C49.2965 27.4902 47.4377 23.2757 44.5109 20.0465ZM36.0126 25.83L38.9069 22.9361C36.5484 20.8901 33.4728 19.6505 30.1134 19.6505C22.7046 19.6505 16.677 25.6782 16.677 33.087C16.677 40.4959 22.7046 46.5229 30.1134 46.5229C37.5221 46.5229 43.5491 40.4959 43.5491 33.087C43.5491 29.727 42.3095 26.6514 40.2641 24.2933L37.3697 27.1878C38.6819 28.7982 39.4703 30.852 39.4703 33.087C39.4703 38.2465 35.2728 42.4447 30.1134 42.4447C24.9534 42.4447 20.7558 38.2465 20.7558 33.087C20.7558 27.9276 24.9534 23.7293 30.1134 23.7293C32.3484 23.7293 34.4016 24.5183 36.0126 25.83ZM29.4342 32.4084L34.6464 27.1962C33.39 26.2272 31.8186 25.6488 30.1128 25.6488C26.0118 25.6488 22.6746 28.9854 22.6746 33.087C22.6746 37.188 26.0118 40.5253 30.1128 40.5253C34.2144 40.5253 37.5509 37.188 37.5509 33.087C37.5509 31.3812 36.9719 29.8098 36.0036 28.5534L30.7914 33.7656C30.6042 33.9528 30.3582 34.0464 30.1128 34.0464C29.8674 34.0464 29.622 33.9528 29.4348 33.7656C29.0598 33.3906 29.0598 32.7834 29.4342 32.4084Z" fill="black"/>
</svg>
